<mxfile host="app.diagrams.net" modified="2023-11-28T20:57:37.896Z" agent="Mozilla/5.0 (Macintosh; Intel Mac OS X 10_15_7) AppleWebKit/537.36 (KHTML, like Gecko) Chrome/119.0.0.0 Safari/537.36" version="22.1.4" etag="DomYqZzKgnbEcYio1__J" type="github">
  <diagram name="Page-1" id="i0P9vPxnERkxOmJq4WJw">
    <mxGraphModel>
      <root>
        <mxCell id="0" />
        <mxCell id="1" parent="0" />
      </root>
    </mxGraphModel>
  </diagram>
</mxfile>
